<?xml version="1.0" encoding="UTF-8" standalone="no"?>
<!-- Created with Inkscape (http://www.inkscape.org/) -->

<svg
   width="116.21058mm"
   height="110.10831mm"
   viewBox="0 0 116.21058 110.10831"
   version="1.1"
   id="svg1"
   xml:space="preserve"
   inkscape:export-filename="logo_zdravJEM_koncni.png"
   inkscape:export-xdpi="96"
   inkscape:export-ydpi="96"
   sodipodi:docname="logo_zdravJEM_3 .svg"
   inkscape:version="1.3 (0e150ed, 2023-07-21)"
   xmlns:inkscape="http://www.inkscape.org/namespaces/inkscape"
   xmlns:sodipodi="http://sodipodi.sourceforge.net/DTD/sodipodi-0.dtd"
   xmlns="http://www.w3.org/2000/svg"
   xmlns:svg="http://www.w3.org/2000/svg"><sodipodi:namedview
     id="namedview1"
     pagecolor="#ffffff"
     bordercolor="#000000"
     borderopacity="0.25"
     inkscape:showpageshadow="2"
     inkscape:pageopacity="0.0"
     inkscape:pagecheckerboard="0"
     inkscape:deskcolor="#d1d1d1"
     inkscape:document-units="mm"
     showgrid="false"
     showguides="true"
     inkscape:zoom="1.011024"
     inkscape:cx="124.13157"
     inkscape:cy="182.9828"
     inkscape:window-width="1920"
     inkscape:window-height="1027"
     inkscape:window-x="0"
     inkscape:window-y="25"
     inkscape:window-maximized="1"
     inkscape:current-layer="layer1"><inkscape:grid
       id="grid1"
       units="mm"
       originx="-64.010826"
       originy="-62.359768"
       spacingx="0.99999996"
       spacingy="1"
       empcolor="#0099e5"
       empopacity="0.30196078"
       color="#0099e5"
       opacity="0.14901961"
       empspacing="5"
       dotted="false"
       gridanglex="30"
       gridanglez="30"
       visible="false" /></sodipodi:namedview><defs
     id="defs1" /><g
     inkscape:label="Layer 1"
     inkscape:groupmode="layer"
     id="layer1"
     transform="translate(-59.999251,-39.127456)"><path
       style="fill:#4ed83f;fill-opacity:1;stroke-width:0"
       d="m 120.57444,147.64785 c -1.43631,-7.8271 -0.84302,-13.47431 -1.59658,-15.80405 -0.71758,-3.32356 -8.23923,-25.59589 -10.24966,-34.263935 -1.95246,-10.59392 -0.83253,-21.89441 3.63781,-31.721409 17.66534,-31.789938 53.08738,-24.481827 58.20063,-19.648609 8.32986,8.604411 6.51517,21.578503 0.52373,34.902175 -12.09387,26.894138 -40.45128,56.839498 -50.51593,66.535828 z"
       id="path2"
       sodipodi:nodetypes="cccccsc"
       inkscape:label="Desni" /><path
       style="fill:#01925c;fill-opacity:1;stroke-width:0"
       d="m 122.35738,145.92497 -3.47221,3.3108 C 94.060622,127.38416 60.886452,104.63076 59.999252,68.422976 60.860777,48.6131 70.272334,37.789925 88.691627,39.260025 c 5.306602,0.351094 10.641574,1.627621 15.385243,4.039321 4.39697,2.485748 8.7105,5.192874 12.17467,8.919429 -0.25393,0.919202 -0.80573,1.244783 -2.13648,3.496677 -2.5893,3.623086 -3.32876,5.23088 -6.612,11.895544 -2.03435,4.905015 -2.56616,8.600585 -2.98335,11.101791 -0.31883,1.892244 -0.75405,12.003928 -0.52551,14.445345 1.65102,7.258688 1.24704,4.371195 2.11555,11.272208 4.65102,16.32771 11.77839,23.59837 16.24763,41.49463 z"
       id="path3"
       sodipodi:nodetypes="cccccccccccc"
       inkscape:label="Levi" /><path
       style="fill:#ffffff;fill-opacity:1;stroke-width:0"
       d="m 119.46127,136.37218 c -0.005,-1.02712 -0.0104,-3.96275 0.007,-4.949 0.13793,-7.67866 1.00889,-14.24724 3.44232,-21.71305 0.65548,-0.19374 18.25732,-6.1299 21.81728,-8.71487 1.34799,-1.228224 -1.09197,-3.952625 -2.53599,-2.657655 -5.69189,2.691975 -10.77844,4.345735 -16.85863,5.696555 1.58095,-4.602271 4.98886,-12.033831 8.54704,-15.533536 10.64612,-4.88739 19.24102,-7.75684 20.61727,-8.739976 0.87835,-0.627453 -0.0848,-2.74058 -1.04233,-2.634664 -0.85826,0.09494 -11.31407,4.779575 -17.62374,6.231446 2.84567,-4.91016 5.69135,-9.820321 8.53702,-14.730481 4.60444,-0.986624 9.41976,-2.939862 13.56938,-5.264452 1.63458,-1.844714 0.12438,-2.764466 -1.30079,-2.10454 l -9.94273,3.777539 c 2.38421,-5.180444 6.24961,-11.364265 8.63382,-16.544709 0.49935,-2.075932 -1.65715,-2.569454 -2.72824,-2.136853 -2.18389,0.882045 -8.91422,15.703901 -13.19215,23.489291 -4.54893,-5.4334 -4.59927,-10.60032 -4.9607,-17.163036 -1.06776,-1.404367 -2.91366,-0.174762 -2.89544,1.256204 -0.58619,7.295068 1.44043,12.174957 4.8514,18.609429 0.7124,2.878221 -5.42546,12.809488 -6.91666,15.811863 -3.18245,-7.322853 -6.15695,-20.369858 -6.59215,-23.101089 -1.16004,-1.15743 -3.20707,-0.821784 -3.21395,1.351542 1.41047,9.386688 3.70182,17.787994 7.72953,25.803807 -2.27864,4.163457 -4.28279,8.452105 -5.90954,12.912875 -1.40214,3.39218 -2.82456,6.77799 -3.41909,10.42314 -0.39724,0.72416 -0.50579,4.35489 -1.11894,2.90534 -2.42674,-5.39309 -5.06882,-10.70029 -6.77416,-16.38112 -3.17171,-11.967219 -3.8859,-11.614699 -6.09723,-17.296514 L 97.184466,73.492062 c 3.492864,-6.145348 6.748414,-12.993195 6.161954,-20.237205 0.21722,-1.774802 -2.8966,-1.074765 -2.45798,0.103764 -0.47192,4.623313 -0.75148,9.456374 -3.218466,13.53473 -0.618723,0.960575 -1.813852,2.709521 -2.563921,2.877217 L 82.417727,47.274508 c -1.501273,-1.226274 -2.798567,0.270568 -2.759559,1.854244 2.823568,4.976122 6.514981,11.35318 9.386463,16.322357 -2.927868,-0.97829 -6.43418,-2.463564 -9.380139,-3.641331 -2.029697,-0.171986 -2.480511,0.140836 -2.022873,1.898099 2.832404,2.170591 10.148899,4.448729 12.851669,5.189355 l 8.99848,15.406192 c -6.172622,-3.120522 -13.068827,-4.91645 -19.150617,-8.513948 -1.618022,-0.297683 -2.255599,2.447207 -0.194844,3.204496 13.686801,5.94496 20.611943,4.560266 24.815153,18.27428 -0.0815,0.96607 0.64631,3.239278 0.98754,5.882368 -3.23502,-0.8638 -6.056259,-1.65801 -9.076646,-3.1124 -1.94795,-0.706832 -3.808584,-1.621181 -5.686879,-2.490879 -1.832284,-0.501856 -3.107497,1.952115 -0.09675,4.017939 0.615488,0.8922 14.794555,6.35526 16.206215,6.6917 1.91195,5.84602 5.02704,12.19564 7.38574,17.1247 1.61719,3.45608 3.75051,8.41465 4.78059,10.9905 z"
       id="path4"
       inkscape:label="BeloVmes"
       sodipodi:nodetypes="cscccccssccccccsccccccccccccccccccccccccccccccccccc" /></g></svg>
